<svg xmlns="http://www.w3.org/2000/svg" height="20px" viewBox="0 -960 960 960" width="20px" fill="currentColor"><path d="M248.46-277.81q54.81-36.34 111.16-53.46 56.34-17.11 120.38-17.11 64.04 0 120.38 17.11 56.35 17.12 111.35 53.46 38.42-42.11 57.33-93.52 18.9-51.4 18.9-108.74 0-128.62-89.63-218.26-89.64-89.63-218.33-89.63t-218.33 89.63q-89.63 89.64-89.63 218.26 0 57.34 18.9 108.74 18.91 51.41 57.52 93.52Zm137.77-180.31q-38.61-38.51-38.61-93.77t38.5-93.88q38.51-38.61 93.77-38.61t93.88 38.5q38.61 38.51 38.61 93.77t-38.5 93.88q-38.51 38.61-93.77 38.61t-93.88-38.5ZM480-124.08q-73.25 0-138.24-27.72-64.98-27.73-113.62-76.46Q179.5-277 151.79-341.91 124.08-406.83 124.08-480q0-74.44 27.72-138.83 27.73-64.39 76.46-113.03Q277-780.5 341.91-808.21q64.92-27.71 138.09-27.71 74.44 0 138.83 27.72 64.39 27.73 113.03 76.46Q780.5-683 808.21-618.68q27.71 64.32 27.71 138.68 0 73.25-27.72 138.24-27.73 64.98-76.46 113.62Q683-179.5 618.68-151.79 554.36-124.08 480-124.08Zm102.56-65.98q50.21-18.02 93.52-52.33-44.31-27.65-93.37-42.84-49.06-15.19-102.65-15.19t-103.75 14.15q-50.16 14.15-92.39 43.88 43.31 34.31 93.52 52.33 50.21 18.02 102.56 18.02t102.56-18.02Zm-43.17-302.55q25.03-25.04 25.03-59.39t-25.03-59.39q-25.04-25.03-59.39-25.03t-59.39 25.03q-25.03 25.04-25.03 59.39t25.03 59.39q25.04 25.03 59.39 25.03t59.39-25.03ZM480-552Zm0 310.77Z"/></svg>